<svg width="50" height="51" viewBox="0 0 50 51" fill="none" xmlns="http://www.w3.org/2000/svg">
<path d="M33.8333 45.8726C33.2808 45.8726 32.7509 45.6531 32.3602 45.2624C31.9695 44.8717 31.75 44.3418 31.75 43.7892V38.3726C31.8147 37.7495 31.748 37.1198 31.5542 36.5241C31.3605 35.9284 31.0439 35.3799 30.625 34.9142C30.3656 34.6329 30.1887 34.2856 30.1137 33.9104C30.0387 33.5352 30.0684 33.1466 30.1997 32.7872C30.331 32.4278 30.5587 32.1115 30.8579 31.873C31.1571 31.6345 31.5162 31.4829 31.8958 31.4351C36.9791 30.8309 41.6666 29.2059 41.6666 20.3934C41.6682 18.7477 41.1825 17.1384 40.2708 15.7684C39.4295 14.5072 39.1223 12.9639 39.4166 11.4767C39.6044 10.5066 39.6044 9.50938 39.4166 8.53922C37.8566 9.06667 36.3878 9.83271 35.0625 10.8101C34.8119 10.988 34.525 11.1083 34.2225 11.1623C33.9199 11.2164 33.6091 11.2028 33.3125 11.1226C29.5527 10.0602 25.5722 10.0602 21.8125 11.1226C21.5158 11.2028 21.205 11.2164 20.9025 11.1623C20.5999 11.1083 20.313 10.988 20.0625 10.8101C18.729 9.82138 17.2446 9.05456 15.6666 8.53922C15.4685 9.50836 15.4685 10.5076 15.6666 11.4767C15.9397 12.9827 15.6186 14.5358 14.7708 15.8101C13.863 17.1897 13.3779 18.8044 13.375 20.4559C13.375 28.5601 17.2916 30.7267 23.1666 31.4767C23.5511 31.5244 23.9146 31.6784 24.2163 31.9213C24.5181 32.1641 24.7462 32.4864 24.875 32.8517C24.9961 33.2062 25.0194 33.5868 24.9424 33.9535C24.8654 34.3201 24.691 34.6592 24.4375 34.9351C24.0323 35.3682 23.7212 35.8806 23.524 36.44C23.3268 36.9994 23.2477 37.5936 23.2916 38.1851V43.7892C23.2916 44.3418 23.0721 44.8717 22.6814 45.2624C22.2907 45.6531 21.7608 45.8726 21.2083 45.8726C20.6558 45.8726 20.1259 45.6531 19.7352 45.2624C19.3445 44.8717 19.125 44.3418 19.125 43.7892V42.6017C17.0778 42.8372 15.0042 42.5628 13.0887 41.8032C11.1732 41.0435 9.47516 39.8221 8.14579 38.2476C7.46247 37.4902 6.64263 36.8682 5.72913 36.4142C5.46375 36.3458 5.21444 36.2258 4.99543 36.0611C4.77643 35.8963 4.59202 35.6901 4.45273 35.454C4.31344 35.218 4.222 34.9569 4.18364 34.6855C4.14527 34.4142 4.16073 34.1379 4.22912 33.8726C4.29752 33.6072 4.41752 33.3579 4.58227 33.1389C4.74701 32.9199 4.95328 32.7354 5.1893 32.5962C5.42531 32.4569 5.68645 32.3654 5.95781 32.3271C6.22916 32.2887 6.50541 32.3042 6.77079 32.3726C8.3734 32.9564 9.80538 33.9301 10.9375 35.2059C13.0208 37.2892 15.1041 39.1226 19.0625 38.3726C18.9929 37.254 19.156 36.1332 19.5416 35.0809C15.25 33.9976 9.12496 30.9142 9.12496 20.4976C9.11947 18.0301 9.84435 15.6162 11.2083 13.5601C11.4616 13.1805 11.5587 12.7178 11.4791 12.2684C11.0581 10.0196 11.2969 7.697 12.1666 5.58089C12.2848 5.29873 12.4637 5.04606 12.6905 4.84082C12.9173 4.63559 13.1866 4.48282 13.4791 4.39338C14.1875 4.18505 16.7291 3.76839 21.5416 6.89338C25.4374 5.95589 29.5 5.95589 33.3958 6.89338C38.2083 3.76839 40.75 4.16422 41.4375 4.39338C41.73 4.48282 41.9993 4.63559 42.2261 4.84082C42.4529 5.04606 42.6318 5.29873 42.75 5.58089C43.6214 7.70387 43.8602 10.0336 43.4375 12.2892C43.3948 12.4925 43.3931 12.7021 43.4325 12.906C43.4718 13.1099 43.5514 13.3039 43.6666 13.4767C45.0345 15.5388 45.7596 17.9605 45.75 20.4351C45.75 30.9976 39.6666 34.0601 35.3333 35.0184C35.715 36.1363 35.8708 37.3189 35.7916 38.4975V43.7892C35.7926 44.3208 35.5903 44.8326 35.2263 45.2199C34.8622 45.6072 34.3639 45.8407 33.8333 45.8726Z" fill="#747474"/>
</svg>
